<svg width="24" height="24" viewBox="0 0 24 24" fill="none" xmlns="http://www.w3.org/2000/svg">
<path d="M4.60655 12.9241H10.1516C10.6599 12.9241 11.0758 12.5082 11.0758 11.9999V4.60655C11.0758 4.09825 10.6599 3.68237 10.1516 3.68237H4.60655C4.09825 3.68237 3.68237 4.09825 3.68237 4.60655V11.9999C3.68237 12.5082 4.09825 12.9241 4.60655 12.9241ZM4.60655 20.3175H10.1516C10.6599 20.3175 11.0758 19.9016 11.0758 19.3933V15.6966C11.0758 15.1883 10.6599 14.7725 10.1516 14.7725H4.60655C4.09825 14.7725 3.68237 15.1883 3.68237 15.6966V19.3933C3.68237 19.9016 4.09825 20.3175 4.60655 20.3175ZM13.8483 20.3175H19.3933C19.9016 20.3175 20.3175 19.9016 20.3175 19.3933V11.9999C20.3175 11.4916 19.9016 11.0758 19.3933 11.0758H13.8483C13.34 11.0758 12.9241 11.4916 12.9241 11.9999V19.3933C12.9241 19.9016 13.34 20.3175 13.8483 20.3175ZM12.9241 4.60655V8.30324C12.9241 8.81154 13.34 9.22742 13.8483 9.22742H19.3933C19.9016 9.22742 20.3175 8.81154 20.3175 8.30324V4.60655C20.3175 4.09825 19.9016 3.68237 19.3933 3.68237H13.8483C13.34 3.68237 12.9241 4.09825 12.9241 4.60655Z" />
</svg>
