<svg width="114" height="120" viewBox="0 0 114 120" fill="none" xmlns="http://www.w3.org/2000/svg">
<path d="M13.125 41.5977H100.625C108.063 41.5977 113.75 47.2601 113.75 54.6648V106.933C113.75 114.338 108.063 120 100.625 120H13.125C5.68752 120 2.28882e-05 114.338 2.28882e-05 106.933V54.6648C2.28882e-05 47.2601 5.68752 41.5977 13.125 41.5977ZM9.62502 108.675L43.75 84.2834L56.875 92.9948L70.4375 84.2834L104.125 108.675L76.5625 80.3633L110.25 54.2292L56.875 82.9767L3.93752 54.6648L37.1875 80.7989L9.62502 108.675Z" fill="#457EFF"/>
<path d="M64.3026 0L65.8204 3.70313L58.3289 8.10213L57.2978 4.11236L64.3026 0ZM67.3588 7.45647L73.4618 22.3446L63.5179 28.1832L59.3736 12.1448L67.3588 7.45647ZM88.948 17.9102L97.5599 26.6994L44.2118 58.0245C43.4291 57.3919 42.5132 56.8892 41.4448 56.6296C40.6045 56.4254 39.7795 56.3993 38.9864 56.4957L39.4003 56.2524L37.3692 52.7893L33.9353 54.805L35.6033 57.6488C34.4652 58.2724 33.4307 59.0364 32.4507 59.8065L30.6511 56.7391L27.2179 58.7555L29.2501 62.2188C28.2346 62.9897 26.8773 63.7677 25.6923 63.747L23.9203 60.7258L22.5811 61.5121C21.9662 60.5428 21.3816 59.2806 20.7766 57.9391L88.948 17.9102ZM110.084 24.002C110.509 26.1178 109.8 28.4214 108.549 31.1305C106.915 34.6716 104.399 38.428 103.477 42.4576C103.155 43.8646 103.096 45.2417 103.132 46.5557L72.0118 64.8282C71.2109 64.1627 70.2667 63.6327 69.1592 63.3636C67.131 62.8708 65.1893 63.4022 63.5831 64.2369C61.977 65.0717 60.5813 66.2057 59.2574 67.2605C57.9338 68.3153 56.6818 69.2904 55.5806 69.8627C54.4794 70.4347 53.6539 70.6074 52.795 70.3987C51.936 70.19 51.2805 69.6575 50.5616 68.6432C49.8428 67.6289 49.1734 66.1867 48.4765 64.6409C47.9642 63.5053 47.4363 62.314 46.7769 61.1749L110.084 24.002ZM85.4359 24.5668L82.0021 26.5827L84.0342 30.0463L87.468 28.0301L85.4359 24.5668ZM40.2686 14.1112L41.7865 17.8146L34.2954 22.2132L33.2644 18.2237L40.2686 14.1112ZM78.569 28.5986L75.1357 30.6145L77.1669 34.0776L80.6002 32.062L78.569 28.5986ZM43.3246 21.5678L49.4277 36.456L39.484 42.2942L35.3398 26.256L43.3246 21.5678ZM71.7023 32.6303L68.2688 34.6461L70.3001 38.1093L73.7336 36.0935L71.7023 32.6303ZM64.8352 36.6623L61.4019 38.678L63.434 42.1415L66.8673 40.1257L64.8352 36.6623ZM16.1727 28.3232L17.6906 32.0268L10.1992 36.4256L9.16811 32.4356L16.1727 28.3232ZM103.397 51.056C103.402 51.249 103.404 51.442 103.401 51.6351C103.363 54.2024 103.04 55.8604 100.17 57.5451L76.2813 71.5729C76.2509 71.5058 76.2211 71.4422 76.1908 71.3749C75.6922 70.2692 75.1773 69.1113 74.542 67.9997L103.397 51.056ZM57.9684 40.6938L54.535 42.7096L56.5672 46.173L60.0005 44.1573L57.9684 40.6938ZM19.2289 35.7799L25.3121 50.6196L18.9969 54.3281C18.7773 53.953 18.542 53.5873 18.2915 53.232C17.2432 51.7523 15.758 50.3883 13.7301 49.8955C13.7123 49.8912 13.6948 49.8881 13.6769 49.884L11.244 40.468L19.2289 35.7799ZM51.1015 44.7254L47.6681 46.7417L49.7004 50.2051L53.1336 48.1888L51.1015 44.7254ZM44.2348 48.7575L40.8015 50.7732L42.8336 54.2367L46.2669 52.2209L44.2348 48.7575Z" fill="#457EFF"/>
</svg>
